<?xml version="1.0" encoding="UTF-8" standalone="no"?>
<svg
        width="829.51392mm"
        height="853.19751mm"
        viewBox="0 0 829.51392 853.19751"
        version="1.1"
        xmlns="http://www.w3.org/2000/svg">
  <g transform="translate(-86.610243,-81.394252)">
    <!-- Letter "C" as path -->
    <path
            d="M 810.029 98.008 H 763.324 L 714.16 170.524 C 624.437 105.382 578.96 88.175 494.153 88.175 c -116.764 0 -216.32 49.164 -298.669 147.491 C 116.822 329.076 80 432.32 80 558.916 c 0 265.483 173.302 453.534 415.432 453.534 196.654 0 322.022-115.534 350.291-322.022 l -57.767-9.832 c -33.185 183.134-126.596 274.087-277.774 274.087 -181.905 0-267.942-125.367-267.942-390.85 0-140.116 18.436-232.298 60.225-306.043 38.102-68.829 113.077-111.847 192.967-111.847 86.036 0 162.24 45.476 208.945 124.138 23.353 40.56 40.56 86.036 70.058 183.134 h 54.08 z"
            transform="scale(1.083308,0.92309851)"
            aria-label="C"
            style="stroke-width:58.0679"/>

    <!-- Letter "A" as path -->
    <path
            d="M 566.284 220.027 H 538.498 L 386.338 605.72 c -17.862 51.602-35.063 67.48-72.772 70.126 h -2.646 v 31.094 h 175.315 v -31.094 h -13.231 c -35.725 0-53.587-12.57-53.587-37.709 0-8.6 1.985-16.539 5.954-27.786 l 21.832-58.218 h 175.315 l 35.725 88.65 c 3.969 10.585 5.293 14.554 5.293 17.862 0 10.585-16.539 17.201-41.017 17.201 H 594.731 v 31.094 h 205.085 v -31.094 h -9.262 c -33.402 0-39.356-3.969-54.572-41.678 Z M 533.867 328.524 608.624 516.409 H 460.434 Z"
            transform="scale(0.99948606,1.0005142)"
            aria-label="A"
            style="stroke-width:31.2551"/>
  </g>
</svg>