<?xml version="1.0" encoding="UTF-8"?>
<svg id="Layer_1" data-name="Layer 1" xmlns="http://www.w3.org/2000/svg" viewBox="0 0 109.99 200">
  <path d="M109.99,145.23H0V55C0,24.67,24.67,0,55,0s55,24.67,55,55v90.24ZM1.93,143.3h106.14V55C108.07,25.73,84.26,1.93,55,1.93S1.93,25.73,1.93,55v88.31Z"/>
  <g>
    <path d="M9.48,173.51c-1.72,0-3.24-.4-4.55-1.21-1.31-.81-2.32-1.96-3.05-3.47-.73-1.51-1.09-3.3-1.09-5.39s.36-3.89,1.09-5.4c.73-1.52,1.74-2.68,3.05-3.5,1.31-.82,2.82-1.23,4.55-1.23,2.34,0,4.16.59,5.45,1.77,1.29,1.18,2.13,2.79,2.53,4.82l-2.48.16c-.27-1.38-.85-2.47-1.74-3.27-.89-.8-2.14-1.2-3.76-1.2-1.23,0-2.32.31-3.25.94-.94.63-1.67,1.52-2.19,2.69s-.79,2.57-.79,4.21.26,3.03.79,4.19c.53,1.16,1.26,2.05,2.19,2.67.93.62,2.02.93,3.25.93,1.69,0,2.99-.44,3.92-1.32s1.51-2.07,1.74-3.58l2.48.16c-.24,1.4-.7,2.62-1.39,3.67-.69,1.05-1.6,1.87-2.74,2.46-1.13.59-2.47.88-4.02.88Z"/>
    <path d="M17.84,173.08l6.97-19.33h3.16l6.97,19.33h-2.56l-1.93-5.5h-8.11l-1.93,5.5h-2.56ZM23.12,165.29h6.53l-3.27-9.5-3.27,9.5Z"/>
    <path d="M36.72,173.08v-19.33h6.64c2.29,0,4,.42,5.15,1.25,1.14.83,1.72,2.15,1.72,3.95,0,.83-.18,1.57-.54,2.2-.36.64-.88,1.13-1.55,1.48-.67.35-1.47.53-2.4.53l-.03-.16c1.65,0,2.95.44,3.91,1.32.95.88,1.43,2.03,1.43,3.44,0,1.76-.57,3.09-1.71,3.97-1.14.89-2.77,1.33-4.87,1.33h-7.73ZM39.06,162.11h4.3c1.42,0,2.5-.27,3.27-.8.76-.53,1.14-1.28,1.14-2.25,0-1.02-.37-1.77-1.1-2.27-.73-.5-1.84-.75-3.31-.75h-4.3v6.07ZM39.06,170.79h5.39c1.32,0,2.35-.27,3.06-.82.72-.54,1.08-1.32,1.08-2.34s-.36-1.81-1.08-2.38c-.72-.57-1.74-.86-3.06-.86h-5.39v6.4Z"/>
    <path d="M54.28,173.08v-19.33h2.34v19.33h-2.34Z"/>
    <path d="M60.91,173.08v-19.33h2.34v18.24l-1.17-1.2h10.84v2.29h-12.01Z"/>
    <path d="M74.61,173.08v-19.33h5.99c2.98,0,5.27.84,6.87,2.52,1.61,1.68,2.41,4.07,2.41,7.17s-.79,5.46-2.37,7.13c-1.58,1.67-3.83,2.5-6.75,2.5h-6.15ZM76.95,170.79h3.65c2.27,0,3.97-.61,5.12-1.84,1.14-1.23,1.72-3.06,1.72-5.51s-.57-4.34-1.72-5.57c-1.14-1.22-2.85-1.84-5.12-1.84h-3.65v14.76Z"/>
    <path d="M100.42,173.51c-1.83,0-3.41-.4-4.72-1.21-1.32-.81-2.33-1.96-3.04-3.47-.71-1.51-1.06-3.3-1.06-5.39s.35-3.89,1.06-5.4c.71-1.52,1.72-2.68,3.04-3.5,1.32-.82,2.89-1.23,4.72-1.23s3.43.41,4.75,1.23c1.32.82,2.33,1.98,3.04,3.5.71,1.52,1.06,3.32,1.06,5.4s-.35,3.88-1.06,5.39c-.71,1.51-1.72,2.66-3.04,3.47-1.32.81-2.9,1.21-4.75,1.21ZM100.42,171.23c1.34,0,2.49-.31,3.44-.93.95-.62,1.68-1.51,2.19-2.67.51-1.16.76-2.56.76-4.19s-.25-3.04-.76-4.21c-.51-1.17-1.24-2.07-2.19-2.69-.95-.63-2.1-.94-3.44-.94s-2.46.31-3.42.94c-.95.63-1.68,1.52-2.19,2.69-.51,1.17-.76,2.57-.76,4.21s.25,3.03.76,4.19c.51,1.16,1.24,2.05,2.19,2.67.95.62,2.09.93,3.42.93Z"/>
    <path d="M.11,199.56l6.97-19.33h3.16l6.97,19.33h-2.56l-1.93-5.5H4.61l-1.93,5.5H.11ZM5.39,191.78h6.53l-3.27-9.5-3.27,9.5Z"/>
    <path d="M19.75,199.56v-19.33h6.64c2.29,0,4,.42,5.15,1.25,1.14.84,1.71,2.15,1.71,3.95,0,.84-.18,1.57-.54,2.21-.36.64-.88,1.13-1.55,1.48-.67.35-1.47.53-2.4.53l-.03-.16c1.65,0,2.95.44,3.91,1.32.95.88,1.43,2.03,1.43,3.44,0,1.76-.57,3.09-1.72,3.97-1.14.89-2.77,1.33-4.87,1.33h-7.73ZM22.09,188.59h4.3c1.42,0,2.5-.27,3.27-.8.76-.53,1.14-1.28,1.14-2.25,0-1.02-.37-1.77-1.1-2.27-.73-.5-1.84-.75-3.31-.75h-4.3v6.07ZM22.09,197.28h5.39c1.32,0,2.35-.27,3.06-.82.72-.54,1.08-1.32,1.08-2.34s-.36-1.81-1.08-2.38c-.72-.57-1.74-.86-3.06-.86h-5.39v6.4Z"/>
    <path d="M38.09,199.56v-19.33h2.34v19.33h-2.34Z"/>
    <path d="M44.93,199.56v-19.33h12.14v2.29h-9.8v6.23h9.47v2.23h-9.47v6.29h10.02v2.29h-12.36Z"/>
    <path d="M61.12,199.56v-19.33h7.32c1.36,0,2.53.24,3.51.71.98.47,1.74,1.15,2.27,2.03.53.88.8,1.92.8,3.12,0,.87-.2,1.65-.61,2.33-.41.68-.93,1.22-1.57,1.62-.64.4-1.3.62-1.99.65l-.16-.24c1.18,0,2.11.27,2.79.82.68.54,1.08,1.42,1.18,2.61l.54,5.69h-2.37l-.49-5.44c-.07-.8-.36-1.39-.86-1.77-.5-.38-1.31-.57-2.44-.57h-5.61v7.79h-2.34ZM63.46,189.49h5.28c1.18,0,2.11-.3,2.8-.9.69-.6,1.03-1.45,1.03-2.56s-.35-1.99-1.06-2.6c-.71-.61-1.73-.91-3.08-.91h-4.98v6.97Z"/>
    <path d="M82.74,199.56v-17.04h-6.02v-2.29h14.37v2.29h-6.02v17.04h-2.34Z"/>
    <path d="M100.42,200c-1.83,0-3.41-.4-4.72-1.21-1.32-.81-2.33-1.96-3.04-3.47-.71-1.51-1.06-3.3-1.06-5.39s.35-3.89,1.06-5.4c.71-1.52,1.72-2.68,3.04-3.5,1.32-.82,2.89-1.23,4.72-1.23s3.43.41,4.75,1.23c1.32.82,2.33,1.98,3.04,3.5.71,1.52,1.06,3.32,1.06,5.4s-.35,3.88-1.06,5.39c-.71,1.51-1.72,2.66-3.04,3.47-1.32.81-2.9,1.21-4.75,1.21ZM100.42,197.71c1.34,0,2.49-.31,3.44-.93.95-.62,1.68-1.51,2.19-2.67.51-1.16.76-2.56.76-4.19s-.25-3.04-.76-4.21c-.51-1.17-1.24-2.07-2.19-2.69-.95-.63-2.1-.94-3.44-.94s-2.46.31-3.42.94c-.95.63-1.68,1.52-2.19,2.69-.51,1.17-.76,2.57-.76,4.21s.25,3.03.76,4.19c.51,1.16,1.24,2.05,2.19,2.67.95.62,2.09.93,3.42.93Z"/>
  </g>
</svg>