<svg version="1.1" viewBox="0.0 0.0 960.0 540.0" fill="none" stroke="none" stroke-linecap="square" stroke-miterlimit="10" xmlns:xlink="http://www.w3.org/1999/xlink" xmlns="http://www.w3.org/2000/svg"><clipPath id="p.0"><path d="m0 0l960.0 0l0 540.0l-960.0 0l0 -540.0z" clip-rule="nonzero"/></clipPath><g clip-path="url(#p.0)"><path fill="#000000" fill-opacity="0.0" d="m0 0l960.0 0l0 540.0l-960.0 0z" fill-rule="evenodd"/><path fill="#000000" fill-opacity="0.0" d="m396.21875 196.70569l129.82678 -72.7874" fill-rule="evenodd"/><path stroke="#666666" stroke-width="3.0" stroke-linejoin="round" stroke-linecap="butt" d="m396.21875 196.70569l114.12604 -63.98477" fill-rule="evenodd"/><path fill="#666666" stroke="#666666" stroke-width="3.0" stroke-linecap="butt" d="m512.768 137.04315l9.452026 -10.980103l-14.298523 2.3356323z" fill-rule="evenodd"/><path fill="#000000" fill-opacity="0.0" d="m409.4787 256.35275l116.566956 -48.53543" fill-rule="evenodd"/><path stroke="#666666" stroke-width="3.0" stroke-linejoin="round" stroke-linecap="butt" d="m409.47873 256.35275l99.9498 -41.616516" fill-rule="evenodd"/><path fill="#666666" stroke="#666666" stroke-width="3.0" stroke-linecap="butt" d="m511.33325 219.31076l10.663635 -9.807648l-14.473053 0.6586304z" fill-rule="evenodd"/><path fill="#000000" fill-opacity="0.0" d="m407.36844 300.72958l118.677155 -19.716522" fill-rule="evenodd"/><path stroke="#666666" stroke-width="3.0" stroke-linejoin="round" stroke-linecap="butt" d="m407.36844 300.72958l100.92056 -16.76654" fill-rule="evenodd"/><path fill="#666666" stroke="#666666" stroke-width="3.0" stroke-linecap="butt" d="m509.1011 288.85126l12.6180725 -7.119446l-14.24231 -2.656952z" fill-rule="evenodd"/><path fill="#000000" fill-opacity="0.0" d="m385.35257 331.71906l140.6929 26.582672" fill-rule="evenodd"/><path stroke="#666666" stroke-width="3.0" stroke-linejoin="round" stroke-linecap="butt" d="m385.35257 331.71902l123.00586 23.240875" fill-rule="evenodd"/><path fill="#666666" stroke="#666666" stroke-width="3.0" stroke-linecap="butt" d="m507.43845 359.82895l14.297577 -2.3414612l-12.457642 -7.396637z" fill-rule="evenodd"/><path fill="#000000" fill-opacity="0.0" d="m353.98257 368.2151l172.06302 67.433075" fill-rule="evenodd"/><path stroke="#666666" stroke-width="3.0" stroke-linejoin="round" stroke-linecap="butt" d="m353.98257 368.2151l155.30405 60.86508" fill-rule="evenodd"/><path fill="#666666" stroke="#666666" stroke-width="3.0" stroke-linecap="butt" d="m507.47855 433.69373l14.483673 0.3541565l-10.867493 -9.581238z" fill-rule="evenodd"/><path fill="#000000" fill-opacity="0.0" d="m322.36053 391.99588l203.68506 116.787384" fill-rule="evenodd"/><path stroke="#666666" stroke-width="3.0" stroke-linejoin="round" stroke-linecap="butt" d="m322.36053 391.99585l188.06973 107.834045" fill-rule="evenodd"/><path fill="#666666" stroke="#666666" stroke-width="3.0" stroke-linecap="butt" d="m507.9655 504.1286l14.275391 2.473175l-9.345886 -11.070618z" fill-rule="evenodd"/><path fill="#4a86e8" d="m526.04553 123.91829l0 0c0 -12.419884 10.484314 -22.48819 23.417297 -22.48819l0 0c6.2106934 0 12.166992 2.3692856 16.558594 6.5866394c4.3916016 4.217354 6.8587646 9.937317 6.8587646 15.90155l0 0c0 12.419891 -10.484314 22.48819 -23.417358 22.48819l0 0c-12.932983 0 -23.417297 -10.068298 -23.417297 -22.48819z" fill-rule="evenodd"/><path fill="#4a86e8" d="m526.04565 207.81732l0 0c0 -12.419891 10.484253 -22.48819 23.417297 -22.48819l0 0c6.2106323 0 12.166931 2.369278 16.558533 6.5866394c4.3916016 4.217346 6.8587646 9.937302 6.8587646 15.90155l0 0c0 12.419876 -10.484253 22.48819 -23.417297 22.48819l0 0c-12.933044 0 -23.417297 -10.068314 -23.417297 -22.48819z" fill-rule="evenodd"/><path fill="#4a86e8" d="m526.0456 281.01306l0 0c0 -12.419891 10.484314 -22.48819 23.417358 -22.48819l0 0c6.2106323 0 12.166931 2.3692627 16.558533 6.5866394c4.3916016 4.217346 6.8587646 9.937286 6.8587646 15.90155l0 0c0 12.419861 -10.484314 22.48819 -23.417297 22.48819l0 0c-12.933044 0 -23.417358 -10.068329 -23.417358 -22.48819z" fill-rule="evenodd"/><path fill="#4a86e8" d="m526.0455 358.30173l0 0c0 -12.419891 10.484314 -22.48819 23.417297 -22.48819l0 0c6.2106934 0 12.166992 2.3692627 16.558594 6.5866394c4.3916016 4.217346 6.8587646 9.937317 6.8587646 15.90155l0 0c0 12.419861 -10.484314 22.48819 -23.417358 22.48819l0 0c-12.932983 0 -23.417297 -10.068329 -23.417297 -22.48819z" fill-rule="evenodd"/><path fill="#4a86e8" d="m526.0456 435.64816l0 0c0 -12.419891 10.484253 -22.48819 23.417297 -22.48819l0 0c6.2106934 0 12.166931 2.3692627 16.558533 6.5866394c4.3916016 4.217346 6.8588257 9.937317 6.8588257 15.90155l0 0c0 12.419861 -10.484314 22.48819 -23.417358 22.48819l0 0c-12.933044 0 -23.417297 -10.068329 -23.417297 -22.48819z" fill-rule="evenodd"/><path fill="#4a86e8" d="m526.0456 508.78326l0 0c0 -12.419891 10.484253 -22.48819 23.417297 -22.48819l0 0c6.2106934 0 12.166931 2.3692932 16.558533 6.5866394c4.3916016 4.217346 6.8588257 9.937317 6.8588257 15.90155l0 0c0 12.419861 -10.484314 22.48822 -23.417358 22.48822l0 0c-12.933044 0 -23.417297 -10.068359 -23.417297 -22.48822z" fill-rule="evenodd"/><path fill="#000000" fill-opacity="0.0" d="m466.27948 24.32376l201.48035 0l0 34.740158l-201.48035 0z" fill-rule="evenodd"/><path fill="#595959" d="m487.52948 64.23126q-2.78125 0 -4.953125 -1.1250038q-2.171875 -1.140625 -3.40625 -3.125q-1.234375 -1.984375 -1.234375 -4.546875l0 -13.796875l5.5 0l0 13.515625q0 1.203125 0.546875 2.1875q0.546875 0.96875 1.46875 1.53125q0.9375 0.5625 2.078125 0.5625q1.21875 0 2.15625 -0.5625q0.953125 -0.5625 1.53125 -1.53125q0.578125 -0.984375 0.578125 -2.1875l0 -13.515625l5.3125 0l0 13.796875q0 2.5625 -1.234375 4.546875q-1.234375 1.984375 -3.40625 3.125q-2.171875 1.1250038 -4.9375 1.1250038zm20.230072 0.125q-2.5 0 -4.40625 -0.7968788q-1.890625 -0.796875 -3.015625 -2.140625l3.109375 -2.6875q0.984375 1.0 2.234375 1.46875q1.25 0.453125 2.359375 0.453125q0.453125 0 0.796875 -0.09375q0.359375 -0.09375 0.59375 -0.265625q0.25 -0.1875 0.375 -0.421875q0.125 -0.25 0.125 -0.5625q0 -0.640625 -0.578125 -1.0q-0.28125 -0.15625 -0.953125 -0.375q-0.671875 -0.234375 -1.734375 -0.515625q-1.5 -0.390625 -2.609375 -0.90625q-1.09375 -0.53125 -1.796875 -1.234375q-0.640625 -0.671875 -1.0 -1.484375q-0.34375 -0.828125 -0.34375 -1.84375q0 -1.1875 0.546875 -2.140625q0.5625 -0.96875 1.5 -1.671875q0.953125 -0.703125 2.1875 -1.0625q1.234375 -0.375 2.546875 -0.375q1.40625 0 2.6875 0.328125q1.28125 0.3125 2.3749695 0.890625q1.109375 0.578125 1.96875 1.375l-2.6875 3.0q-0.5624695 -0.53125 -1.2968445 -0.96875q-0.71875 -0.4375 -1.484375 -0.6875q-0.765625 -0.25 -1.40625 -0.25q-0.484375 0 -0.859375 0.078125q-0.359375 0.078125 -0.609375 0.25q-0.25 0.171875 -0.390625 0.421875q-0.125 0.234375 -0.125 0.546875q0 0.328125 0.171875 0.625q0.1875 0.28125 0.5 0.46875q0.328125 0.1875 1.03125 0.4375q0.703125 0.234375 1.921875 0.59375q1.5 0.40625 2.5780945 0.921875q1.09375 0.515625 1.734375 1.21875q0.515625 0.546875 0.765625 1.265625q0.265625 0.71875 0.265625 1.546875q0 1.640625 -0.921875 2.90625q-0.90625 1.25 -2.5155945 1.96875q-1.59375 0.7187538 -3.640625 0.7187538zm15.902496 0.046875q-1.890625 0 -3.21875 -0.8125038q-1.328125 -0.828125 -2.046875 -2.359375q-0.71875 -1.546875 -0.71875 -3.6875l0 -10.484375l5.15625 0l0 9.78125q0 1.03125 0.3125 1.765625q0.328125 0.734375 0.96875 1.140625q0.640625 0.390625 1.53125 0.390625q0.671875 0 1.234375 -0.21875q0.5625 -0.234375 0.953125 -0.625q0.40625 -0.40625 0.625 -0.921875q0.234375 -0.53125 0.234375 -1.171875l0 -10.140625l5.140625 0l0 16.984379l-4.828125 0l-0.21875 -3.4843788l0.953125 -0.390625q-0.375 1.21875 -1.28125 2.171875q-0.890625 0.9375 -2.140625 1.5q-1.25 0.5625038 -2.65625 0.5625038zm21.028442 -0.078125q-2.140625 0 -3.828125 -1.1250038q-1.671875 -1.140625 -2.671875 -3.140625q-0.984375 -2.0 -0.984375 -4.53125q0 -2.59375 0.984375 -4.578125q1.0 -1.984375 2.71875 -3.109375q1.734375 -1.140625 3.9375 -1.140625q1.21875 0 2.21875 0.359375q1.015625 0.34375 1.78125 0.96875q0.765625 0.625 1.3125 1.4375q0.546875 0.8125 0.796875 1.75l-1.046875 -0.125l0 -4.03125l5.078125 0l0 16.984379l-5.1875 0l0 -4.093754l1.15625 -0.03125q-0.25 0.890625 -0.828125 1.703125q-0.578125 0.796875 -1.40625 1.40625q-0.828125 0.59375 -1.859375 0.953125q-1.015625 0.3437538 -2.171875 0.3437538zm1.40625 -4.312504q1.1875 0 2.046875 -0.546875q0.859375 -0.546875 1.34375 -1.546875q0.484375 -1.015625 0.484375 -2.390625q0 -1.375 -0.484375 -2.375q-0.484375 -1.015625 -1.34375 -1.578125q-0.859375 -0.5625 -2.046875 -0.5625q-1.15625 0 -2.0 0.5625q-0.84375 0.5625 -1.328125 1.578125q-0.484375 1.0 -0.484375 2.375q0 1.375 0.484375 2.390625q0.484375 1.0 1.328125 1.546875q0.84375 0.546875 2.0 0.546875zm13.400513 4.031254l0 -16.984379l4.875 0l0.21875 5.53125l-0.953125 -1.0625q0.375 -1.375 1.25 -2.453125q0.890625 -1.09375 2.0625 -1.734375q1.1875 -0.640625 2.53125 -0.640625q0.578125 0 1.078125 0.09375q0.5 0.09375 0.90625 0.21875l-1.40625 5.671875q-0.34375 -0.21875 -0.9375 -0.359375q-0.59375 -0.15625 -1.234375 -0.15625q-0.703125 0 -1.3125 0.25q-0.609375 0.234375 -1.03125 0.6875q-0.40625 0.4375 -0.65625 1.046875q-0.234375 0.609375 -0.234375 1.375l0 8.515629l-5.15625 0zm14.856934 0l0 -16.984379l5.125 0l0 16.984379l-5.125 0zm2.5625 -20.359379q-1.4375 0 -2.265625 -0.6875q-0.8125 -0.6875 -0.8125 -1.96875q0 -1.140625 0.828125 -1.875q0.84375 -0.734375 2.25 -0.734375q1.4375 0 2.234375 0.6875q0.796875 0.6875 0.796875 1.921875q0 1.1875 -0.8125 1.921875q-0.8125 0.734375 -2.21875 0.734375zm15.348633 20.671879q-2.65625 0 -4.71875 -1.1406288q-2.0625 -1.15625 -3.265625 -3.140625q-1.1875 -1.984375 -1.1875 -4.546875q0 -2.5625 1.1875 -4.546875q1.203125 -1.984375 3.265625 -3.125q2.0625 -1.15625 4.71875 -1.15625q2.65625 0 4.71875 1.15625q2.078125 1.140625 3.25 3.125q1.1875 1.984375 1.1875 4.546875q0 2.5625 -1.1875 4.546875q-1.171875 1.984375 -3.25 3.140625q-2.0625 1.1406288 -4.71875 1.1406288zm0 -4.406254q1.15625 0 2.046875 -0.578125q0.90625 -0.578125 1.40625 -1.5625q0.515625 -1.0 0.484375 -2.28125q0.03125 -1.28125 -0.484375 -2.28125q-0.5 -1.015625 -1.40625 -1.578125q-0.890625 -0.578125 -2.046875 -0.578125q-1.140625 0 -2.0625 0.578125q-0.90625 0.5625 -1.421875 1.578125q-0.515625 1.0 -0.484375 2.28125q-0.03125 1.28125 0.484375 2.28125q0.515625 0.984375 1.421875 1.5625q0.921875 0.578125 2.0625 0.578125zm18.246399 4.406254q-2.5 0 -4.40625 -0.7968788q-1.890625 -0.796875 -3.015625 -2.140625l3.109375 -2.6875q0.984375 1.0 2.234375 1.46875q1.25 0.453125 2.359375 0.453125q0.453125 0 0.796875 -0.09375q0.359375 -0.09375 0.59375 -0.265625q0.25 -0.1875 0.375 -0.421875q0.125 -0.25 0.125 -0.5625q0 -0.640625 -0.578125 -1.0q-0.28125 -0.15625 -0.953125 -0.375q-0.671875 -0.234375 -1.734375 -0.515625q-1.5 -0.390625 -2.609375 -0.90625q-1.09375 -0.53125 -1.796875 -1.234375q-0.640625 -0.671875 -1.0 -1.484375q-0.34375 -0.828125 -0.34375 -1.84375q0 -1.1875 0.546875 -2.140625q0.5625 -0.96875 1.5 -1.671875q0.953125 -0.703125 2.1875 -1.0625q1.234375 -0.375 2.546875 -0.375q1.40625 0 2.6875 0.328125q1.28125 0.3125 2.375 0.890625q1.109375 0.578125 1.96875 1.375l-2.6875 3.0q-0.5625 -0.53125 -1.296875 -0.96875q-0.71875 -0.4375 -1.484375 -0.6875q-0.765625 -0.25 -1.40625 -0.25q-0.484375 0 -0.859375 0.078125q-0.359375 0.078125 -0.609375 0.25q-0.25 0.171875 -0.390625 0.421875q-0.125 0.234375 -0.125 0.546875q0 0.328125 0.171875 0.625q0.1875 0.28125 0.5 0.46875q0.328125 0.1875 1.03125 0.4375q0.703125 0.234375 1.921875 0.59375q1.5 0.40625 2.578125 0.921875q1.09375 0.515625 1.734375 1.21875q0.515625 0.546875 0.765625 1.265625q0.265625 0.71875 0.265625 1.546875q0 1.640625 -0.921875 2.90625q-0.90625 1.25 -2.515625 1.96875q-1.59375 0.7187538 -3.640625 0.7187538z" fill-rule="nonzero"/><path fill="#4285f4" d="m783.60425 127.343544l0 0c0 -3.4442368 2.7921143 -6.2363434 6.236389 -6.2363434l24.944641 0l0 0c1.6539307 0 3.2401733 0.6570358 4.409729 1.8265839c1.1695557 1.1695404 1.8265991 2.7557755 1.8265991 4.4097595l0 32.503685c0 3.4442444 -2.7921143 6.2363434 -6.236328 6.2363434l-24.944641 0c-3.444275 0 -6.236389 -2.792099 -6.236389 -6.2363434z" fill-rule="evenodd"/><path fill="#4285f4" d="m783.60425 198.67903l0 0c0 -3.4442444 2.7921143 -6.2363434 6.236389 -6.2363434l24.944641 0l0 0c1.6539307 0 3.2401733 0.6570282 4.409729 1.8265839c1.1695557 1.1695404 1.8265991 2.7557678 1.8265991 4.4097595l0 32.503677c0 3.4442444 -2.7921143 6.2363586 -6.236328 6.2363586l-24.944641 0c-3.444275 0 -6.236389 -2.7921143 -6.236389 -6.2363586z" fill-rule="evenodd"/><path fill="#4285f4" d="m783.60425 275.6393l0 0c0 -3.4442444 2.7921143 -6.236328 6.236389 -6.236328l24.944641 0l0 0c1.6539307 0 3.2401733 0.65701294 4.409729 1.8265686c1.1695557 1.1695557 1.8265991 2.7557678 1.8265991 4.4097595l0 32.503693c0 3.4442444 -2.7921143 6.236328 -6.236328 6.236328l-24.944641 0c-3.444275 0 -6.236389 -2.7920837 -6.236389 -6.236328z" fill-rule="evenodd"/><path fill="#4285f4" d="m783.60425 352.5996l0 0c0 -3.4442444 2.7921143 -6.2363586 6.236389 -6.2363586l24.944641 0l0 0c1.6539307 0 3.2401733 0.65704346 4.409729 1.8265991c1.1695557 1.1695251 1.8265991 2.7557678 1.8265991 4.4097595l0 32.503693c0 3.4442139 -2.7921143 6.236328 -6.236328 6.236328l-24.944641 0c-3.444275 0 -6.236389 -2.7921143 -6.236389 -6.236328z" fill-rule="evenodd"/><path fill="#4285f4" d="m783.60425 429.55988l0 0c0 -3.4442139 2.7921143 -6.236328 6.236389 -6.236328l24.944641 0l0 0c1.6539307 0 3.2401733 0.65704346 4.409729 1.8265686c1.1695557 1.1695557 1.8265991 2.7557983 1.8265991 4.4097595l0 32.503693c0 3.4442444 -2.7921143 6.2363586 -6.236328 6.2363586l-24.944641 0c-3.444275 0 -6.236389 -2.7921143 -6.236389 -6.2363586z" fill-rule="evenodd"/><path fill="#4285f4" d="m853.7288 395.11447l0 0c0 -3.4442444 2.7921143 -6.2363586 6.236389 -6.2363586l24.94458 0l0 0c1.6539917 0 3.2402344 0.65704346 4.40979 1.8265991c1.1695557 1.1695251 1.8265991 2.7557678 1.8265991 4.4097595l0 32.503662c0 3.4442444 -2.7921143 6.2363586 -6.236389 6.2363586l-24.94458 0c-3.444275 0 -6.236389 -2.7921143 -6.236389 -6.2363586z" fill-rule="evenodd"/><path fill="#4285f4" d="m853.7288 314.2298l0 0c0 -3.4442444 2.7921143 -6.2363586 6.236389 -6.2363586l24.94458 0l0 0c1.6539917 0 3.2402344 0.65704346 4.40979 1.8265991c1.1695557 1.1695251 1.8265991 2.7557678 1.8265991 4.4097595l0 32.503693c0 3.4442139 -2.7921143 6.236328 -6.236389 6.236328l-24.94458 0c-3.444275 0 -6.236389 -2.7921143 -6.236389 -6.236328z" fill-rule="evenodd"/><path fill="#4285f4" d="m853.7288 233.34512l0 0c0 -3.4442444 2.7921143 -6.2363434 6.236389 -6.2363434l24.94458 0l0 0c1.6539917 0 3.2402344 0.65704346 4.40979 1.8265839c1.1695557 1.1695404 1.8265991 2.755783 1.8265991 4.4097595l0 32.503693c0 3.4442444 -2.7921143 6.236328 -6.236389 6.236328l-24.94458 0c-3.444275 0 -6.236389 -2.7920837 -6.236389 -6.236328z" fill-rule="evenodd"/><path fill="#4285f4" d="m853.7288 142.94588l0 0c0 -3.4442291 2.7921143 -6.2363434 6.236389 -6.2363434l24.94458 0l0 0c1.6539917 0 3.2402344 0.65704346 4.40979 1.8265839c1.1695557 1.1695404 1.8265991 2.755783 1.8265991 4.4097595l0 32.503693c0 3.4442444 -2.7921143 6.2363434 -6.236389 6.2363434l-24.94458 0c-3.444275 0 -6.236389 -2.792099 -6.236389 -6.2363434z" fill-rule="evenodd"/><path fill="#000000" fill-opacity="0.0" d="m572.8801 358.30173l210.70868 -66.4252" fill-rule="evenodd"/><path stroke="#666666" stroke-width="3.0" stroke-linejoin="round" stroke-linecap="butt" d="m572.8801 358.30173l193.54144 -61.013336" fill-rule="evenodd"/><path fill="#666666" stroke="#666666" stroke-width="3.0" stroke-linecap="butt" d="m767.91144 302.01434l11.494507 -8.819214l-14.474182 -0.6326599z" fill-rule="evenodd"/><path fill="#000000" fill-opacity="0.0" d="m572.8801 358.30173l210.70868 10.551178" fill-rule="evenodd"/><path stroke="#666666" stroke-width="3.0" stroke-linejoin="round" stroke-linecap="butt" d="m572.8801 358.30173l192.7312 9.65094" fill-rule="evenodd"/><path fill="#666666" stroke="#666666" stroke-width="3.0" stroke-linecap="butt" d="m765.36346 372.90167l13.845093 -4.2681274l-13.349487 -5.6298523z" fill-rule="evenodd"/><path fill="#000000" fill-opacity="0.0" d="m572.8801 358.30173l210.70868 87.49606" fill-rule="evenodd"/><path stroke="#666666" stroke-width="3.0" stroke-linejoin="round" stroke-linecap="butt" d="m572.8801 358.30173l194.08484 80.59308" fill-rule="evenodd"/><path fill="#666666" stroke="#666666" stroke-width="3.0" stroke-linecap="butt" d="m765.0647 443.47116l14.473694 0.64471436l-10.673096 -9.797394z" fill-rule="evenodd"/><path fill="#000000" fill-opacity="0.0" d="m730.8911 8.728347l219.65356 0l0 67.43307l-219.65356 0z" fill-rule="evenodd"/><path fill="#595959" d="m762.61414 48.76085q-2.515625 0 -4.65625 -0.84375q-2.125 -0.84375 -3.6875 -2.390625q-1.5625 -1.5625 -2.421875 -3.6875q-0.84375 -2.125 -0.84375 -4.6875q0 -2.5 0.890625 -4.609375q0.90625 -2.109377 2.484375 -3.656252q1.59375 -1.5625 3.75 -2.421875q2.15625 -0.859375 4.71875 -0.859375q1.59375 0 3.125 0.421875q1.546875 0.40625 2.875 1.21875q1.328125 0.8125 2.28125 1.9375l-3.328125 3.812502q-0.671875 -0.703125 -1.421875 -1.2343769q-0.75 -0.53125 -1.65625 -0.8125q-0.890625 -0.296875 -1.90625 -0.296875q-1.28125 0 -2.421875 0.46875q-1.140625 0.46875 -1.984375 1.3125019q-0.84375 0.84375 -1.328125 2.0625q-0.484375 1.21875 -0.484375 2.71875q0 1.46875 0.484375 2.671875q0.484375 1.203125 1.34375 2.078125q0.859375 0.859375 2.09375 1.3125q1.234375 0.4375 2.734375 0.4375q1.03125 0 1.953125 -0.28125q0.9375 -0.296875 1.71875 -0.78125q0.78125 -0.5 1.390625 -1.140625l2.625 4.15625q-0.796875 0.890625 -2.125 1.59375q-1.328125 0.703125 -2.953125 1.109375q-1.609375 0.390625 -3.25 0.390625zm19.489258 0q-2.65625 0 -4.71875 -1.140625q-2.0625 -1.15625 -3.265625 -3.140625q-1.1875 -1.984375 -1.1875 -4.546875q0 -2.5625 1.1875 -4.546875q1.203125 -1.984375 3.265625 -3.125q2.0625 -1.1562519 4.71875 -1.1562519q2.65625 0 4.71875 1.1562519q2.078125 1.140625 3.25 3.125q1.1875 1.984375 1.1875 4.546875q0 2.5625 -1.1875 4.546875q-1.171875 1.984375 -3.25 3.140625q-2.0625 1.140625 -4.71875 1.140625zm0 -4.40625q1.15625 0 2.046875 -0.578125q0.90625 -0.578125 1.40625 -1.5625q0.515625 -1.0 0.484375 -2.28125q0.03125 -1.28125 -0.484375 -2.28125q-0.5 -1.015625 -1.40625 -1.578125q-0.890625 -0.578125 -2.046875 -0.578125q-1.140625 0 -2.0625 0.578125q-0.90625 0.5625 -1.421875 1.578125q-0.515625 1.0 -0.484375 2.28125q-0.03125 1.28125 0.484375 2.28125q0.515625 0.984375 1.421875 1.5625q0.921875 0.578125 2.0625 0.578125zm12.512024 4.09375l0 -16.984377l4.875 0l0.15625 3.453127l-1.03125 0.375q0.359375 -1.140625 1.265625 -2.078125q0.921875 -0.953125 2.203125 -1.5312519q1.28125 -0.578125 2.6875 -0.578125q1.921875 0 3.21875 0.78125q1.3125 0.7812519 1.984375 2.343752q0.671875 1.546875 0.671875 3.78125l0 10.4375l-5.140625 0l0 -10.015625q0 -1.03125 -0.296875 -1.703125q-0.28125 -0.671875 -0.875 -1.0q-0.59375 -0.34375 -1.453125 -0.3125q-0.671875 0 -1.25 0.21875q-0.578125 0.203125 -1.0 0.609375q-0.40625 0.390625 -0.65625 0.90625q-0.234375 0.515625 -0.234375 1.125l0 10.171875l-2.53125 0q-0.890625 0 -1.53125 0q-0.640625 0 -1.0625 0zm21.741943 0l0 -21.281252l5.109375 0l0 21.281252l-5.109375 0zm-3.015625 -12.515625l0 -4.468752l11.421875 0l0 4.468752l-11.421875 0zm22.279114 12.828125q-2.828125 0 -4.90625 -1.125q-2.078125 -1.140625 -3.234375 -3.109375q-1.140625 -1.96875 -1.140625 -4.5q0 -1.953125 0.640625 -3.578125q0.640625 -1.625 1.78125 -2.828125q1.15625 -1.203125 2.734375 -1.8593769q1.59375 -0.65625 3.484375 -0.65625q1.78125 0 3.265625 0.640625q1.5 0.6406269 2.578125 1.7968769q1.09375 1.140625 1.671875 2.71875q0.578125 1.5625 0.515625 3.421875l-0.03125 1.375l-13.546875 0l-0.734375 -2.875l10.109375 0l-0.53125 0.609375l0 -0.640625q-0.078125 -0.8125 -0.515625 -1.4375q-0.421875 -0.625 -1.125 -0.96875q-0.703125 -0.359375 -1.59375 -0.359375q-1.25 0 -2.140625 0.5q-0.875 0.5 -1.328125 1.453125q-0.4375 0.9375 -0.4375 2.3125q0 1.40625 0.59375 2.453125q0.59375 1.03125 1.71875 1.609375q1.140625 0.578125 2.703125 0.578125q1.09375 0 1.9375 -0.3125q0.859375 -0.328125 1.84375 -1.09375l2.40625 3.390625q-1.0 0.859375 -2.125 1.40625q-1.109375 0.546875 -2.28125 0.8125q-1.171875 0.265625 -2.3125 0.265625zm10.6427 -0.3125l0 -16.984377l4.875 0l0.15625 3.453127l-1.03125 0.375q0.359375 -1.140625 1.265625 -2.078125q0.921875 -0.953125 2.203125 -1.5312519q1.28125 -0.578125 2.6875 -0.578125q1.921875 0 3.21875 0.78125q1.3125 0.7812519 1.984375 2.343752q0.671875 1.546875 0.671875 3.78125l0 10.4375l-5.140625 0l0 -10.015625q0 -1.03125 -0.296875 -1.703125q-0.28125 -0.671875 -0.875 -1.0q-0.59375 -0.34375 -1.453125 -0.3125q-0.671875 0 -1.25 0.21875q-0.578125 0.203125 -1.0 0.609375q-0.40625 0.390625 -0.65625 0.90625q-0.234375 0.515625 -0.234375 1.125l0 10.171875l-2.53125 0q-0.890625 0 -1.53125 0q-0.640625 0 -1.0625 0zm20.616882 0l0 -16.984377l5.125 0l0 16.984377l-5.125 0zm2.5625 -20.359377q-1.4375 0 -2.265625 -0.6875q-0.8125 -0.6875 -0.8125 -1.96875q0 -1.140625 0.828125 -1.875q0.84375 -0.734375 2.25 -0.734375q1.4375 0 2.234375 0.6875q0.796875 0.6875 0.796875 1.921875q0 1.1875 -0.8125 1.921875q-0.8125 0.734375 -2.21875 0.734375zm13.786194 20.718752q-2.203125 0 -3.921875 -1.140625q-1.703125 -1.140625 -2.703125 -3.140625q-0.984375 -2.0 -0.984375 -4.5625q0 -2.5625 0.984375 -4.5625q1.0 -2.0 2.71875 -3.140625q1.734375 -1.1562519 3.96875 -1.1562519q1.15625 0 2.203125 0.359375q1.0625 0.34375 1.921875 0.9531269q0.875 0.609375 1.40625 1.390625q0.546875 0.78125 0.640625 1.609375l-1.203125 0.296875l0 -10.953127l5.140625 0l0 23.687502l-4.765625 0l-0.28125 -3.875l1.015625 0.15625q-0.09375 0.8125 -0.625 1.546875q-0.515625 0.734375 -1.359375 1.296875q-0.828125 0.5625 -1.90625 0.890625q-1.0625 0.34375 -2.25 0.34375zm1.3125 -4.265625q1.1875 0 2.046875 -0.578125q0.859375 -0.578125 1.328125 -1.59375q0.46875 -1.03125 0.46875 -2.40625q0 -1.40625 -0.46875 -2.421875q-0.46875 -1.03125 -1.328125 -1.609375q-0.859375 -0.578125 -2.046875 -0.578125q-1.1875 0 -2.03125 0.578125q-0.84375 0.578125 -1.328125 1.609375q-0.484375 1.015625 -0.484375 2.421875q0 1.375 0.484375 2.40625q0.484375 1.015625 1.328125 1.59375q0.84375 0.578125 2.03125 0.578125zm21.17804 4.21875q-2.65625 0 -4.71875 -1.140625q-2.0625 -1.15625 -3.265625 -3.140625q-1.1875 -1.984375 -1.1875 -4.546875q0 -2.5625 1.1875 -4.546875q1.203125 -1.984375 3.265625 -3.125q2.0625 -1.1562519 4.71875 -1.1562519q2.65625 0 4.71875 1.1562519q2.078125 1.140625 3.25 3.125q1.1875 1.984375 1.1875 4.546875q0 2.5625 -1.1875 4.546875q-1.171875 1.984375 -3.25 3.140625q-2.0625 1.140625 -4.71875 1.140625zm0 -4.40625q1.15625 0 2.046875 -0.578125q0.90625 -0.578125 1.40625 -1.5625q0.515625 -1.0 0.484375 -2.28125q0.03125 -1.28125 -0.484375 -2.28125q-0.5 -1.015625 -1.40625 -1.578125q-0.890625 -0.578125 -2.046875 -0.578125q-1.140625 0 -2.0625 0.578125q-0.90625 0.5625 -1.421875 1.578125q-0.515625 1.0 -0.484375 2.28125q-0.03125 1.28125 0.484375 2.28125q0.515625 0.984375 1.421875 1.5625q0.921875 0.578125 2.0625 0.578125zm18.246399 4.40625q-2.5 0 -4.40625 -0.796875q-1.890625 -0.796875 -3.015625 -2.140625l3.109375 -2.6875q0.984375 1.0 2.234375 1.46875q1.25 0.453125 2.359375 0.453125q0.453125 0 0.796875 -0.09375q0.359375 -0.09375 0.59375 -0.265625q0.25 -0.1875 0.375 -0.421875q0.125 -0.25 0.125 -0.5625q0 -0.640625 -0.578125 -1.0q-0.28125 -0.15625 -0.953125 -0.375q-0.671875 -0.234375 -1.734375 -0.515625q-1.5 -0.390625 -2.609375 -0.90625q-1.09375 -0.53125 -1.796875 -1.234375q-0.640625 -0.671875 -1.0 -1.484375q-0.34375 -0.828125 -0.34375 -1.84375q0 -1.1875 0.546875 -2.140625q0.5625 -0.96875 1.5 -1.671875q0.953125 -0.7031269 2.1875 -1.0625019q1.234375 -0.375 2.546875 -0.375q1.40625 0 2.6875 0.328125q1.28125 0.3125 2.375 0.8906269q1.109375 0.578125 1.96875 1.375l-2.6875 3.0q-0.5625 -0.53125 -1.296875 -0.96875q-0.71875 -0.4375 -1.484375 -0.6875q-0.765625 -0.25 -1.40625 -0.25q-0.484375 0 -0.859375 0.078125q-0.359375 0.078125 -0.609375 0.25q-0.25 0.171875 -0.390625 0.421875q-0.125 0.234375 -0.125 0.546875q0 0.328125 0.171875 0.625q0.1875 0.28125 0.5 0.46875q0.328125 0.1875 1.03125 0.4375q0.703125 0.234375 1.921875 0.59375q1.5 0.40625 2.578125 0.921875q1.09375 0.515625 1.734375 1.21875q0.515625 0.546875 0.765625 1.265625q0.265625 0.71875 0.265625 1.546875q0 1.640625 -0.921875 2.90625q-0.90625 1.25 -2.515625 1.96875q-1.59375 0.71875 -3.640625 0.71875z" fill-rule="nonzero"/><path fill="#595959" d="m753.9881 87.16085q-2.46875 0 -4.421875 -1.140625q-1.953125 -1.15625 -3.09375 -3.15625q-1.125 -2.0 -1.125 -4.53125q0 -2.53125 1.125 -4.53125q1.140625 -2.0 3.09375 -3.140625q1.953125 -1.15625 4.421875 -1.15625q2.265625 0 4.171875 0.796875q1.90625 0.796875 3.015625 2.25l-2.78125 3.328125q-0.4375 -0.515625 -1.046875 -0.96875q-0.609375 -0.453125 -1.34375 -0.703125q-0.734375 -0.25 -1.546875 -0.25q-1.21875 0 -2.140625 0.5625q-0.921875 0.546875 -1.4375 1.546875q-0.515625 0.984375 -0.515625 2.265625q0 1.21875 0.53125 2.21875q0.53125 0.984375 1.453125 1.5625q0.9375 0.578125 2.109375 0.578125q0.84375 0 1.546875 -0.203125q0.703125 -0.21875 1.28125 -0.625q0.59375 -0.421875 1.109375 -1.03125l2.75 3.359375q-1.078125 1.375 -3.015625 2.171875q-1.9375 0.796875 -4.140625 0.796875zm17.971313 0q-2.65625 0 -4.71875 -1.140625q-2.0625 -1.15625 -3.265625 -3.140625q-1.1875 -1.984375 -1.1875 -4.546875q0 -2.5625 1.1875 -4.546875q1.203125 -1.984375 3.265625 -3.125q2.0625 -1.15625 4.71875 -1.15625q2.65625 0 4.71875 1.15625q2.078125 1.140625 3.25 3.125q1.1875 1.984375 1.1875 4.546875q0 2.5625 -1.1875 4.546875q-1.171875 1.984375 -3.25 3.140625q-2.0625 1.140625 -4.71875 1.140625zm0 -4.40625q1.15625 0 2.046875 -0.578125q0.90625 -0.578125 1.40625 -1.5625q0.515625 -1.0 0.484375 -2.28125q0.03125 -1.28125 -0.484375 -2.28125q-0.5 -1.015625 -1.40625 -1.578125q-0.890625 -0.578125 -2.046875 -0.578125q-1.140625 0 -2.0625 0.578125q-0.90625 0.5625 -1.421875 1.578125q-0.515625 1.0 -0.484375 2.28125q-0.03125 1.28125 0.484375 2.28125q0.515625 0.984375 1.421875 1.5625q0.921875 0.578125 2.0625 0.578125zm12.512024 4.09375l0 -16.984375l4.875 0l0.15625 3.453125l-1.03125 0.375q0.359375 -1.140625 1.265625 -2.078125q0.921875 -0.953125 2.203125 -1.53125q1.28125 -0.578125 2.6875 -0.578125q1.921875 0 3.21875 0.78125q1.3125 0.78125 1.984375 2.34375q0.671875 1.546875 0.671875 3.78125l0 10.4375l-5.140625 0l0 -10.015625q0 -1.03125 -0.296875 -1.703125q-0.28125 -0.671875 -0.875 -1.0q-0.59375 -0.34375 -1.453125 -0.3125q-0.671875 0 -1.25 0.21875q-0.578125 0.203125 -1.0 0.609375q-0.40625 0.390625 -0.65625 0.90625q-0.234375 0.515625 -0.234375 1.125l0 10.171875l-2.53125 0q-0.890625 0 -1.53125 0q-0.640625 0 -1.0625 0zm26.054382 0.3125q-2.5 0 -4.40625 -0.796875q-1.890625 -0.796875 -3.015625 -2.140625l3.109375 -2.6875q0.984375 1.0 2.234375 1.46875q1.25 0.453125 2.359375 0.453125q0.453125 0 0.796875 -0.09375q0.359375 -0.09375 0.59375 -0.265625q0.25 -0.1875 0.375 -0.421875q0.125 -0.25 0.125 -0.5625q0 -0.640625 -0.578125 -1.0q-0.28125 -0.15625 -0.953125 -0.375q-0.671875 -0.234375 -1.734375 -0.515625q-1.5 -0.390625 -2.609375 -0.90625q-1.09375 -0.53125 -1.796875 -1.234375q-0.640625 -0.671875 -1.0 -1.484375q-0.34375 -0.828125 -0.34375 -1.84375q0 -1.1875 0.546875 -2.140625q0.5625 -0.96875 1.5 -1.671875q0.953125 -0.703125 2.1875 -1.0625q1.234375 -0.375 2.546875 -0.375q1.40625 0 2.6875 0.328125q1.28125 0.3125 2.375 0.890625q1.109375 0.578125 1.96875 1.375l-2.6875 3.0q-0.5625 -0.53125 -1.296875 -0.96875q-0.71875 -0.4375 -1.484375 -0.6875q-0.765625 -0.25 -1.40625 -0.25q-0.484375 0 -0.859375 0.078125q-0.359375 0.078125 -0.609375 0.25q-0.25 0.171875 -0.390625 0.421875q-0.125 0.234375 -0.125 0.546875q0 0.328125 0.171875 0.625q0.1875 0.28125 0.5 0.46875q0.328125 0.1875 1.03125 0.4375q0.703125 0.234375 1.921875 0.59375q1.5 0.40625 2.578125 0.921875q1.09375 0.515625 1.734375 1.21875q0.515625 0.546875 0.765625 1.265625q0.265625 0.71875 0.265625 1.546875q0 1.640625 -0.921875 2.90625q-0.90625 1.25 -2.515625 1.96875q-1.59375 0.71875 -3.640625 0.71875zm15.902527 0.046875q-1.890625 0 -3.21875 -0.8125q-1.328125 -0.828125 -2.046875 -2.359375q-0.71875 -1.546875 -0.71875 -3.6875l0 -10.484375l5.15625 0l0 9.78125q0 1.03125 0.3125 1.765625q0.328125 0.734375 0.96875 1.140625q0.640625 0.390625 1.53125 0.390625q0.671875 0 1.234375 -0.21875q0.5625 -0.234375 0.953125 -0.625q0.40625 -0.40625 0.625 -0.921875q0.234375 -0.53125 0.234375 -1.171875l0 -10.140625l5.140625 0l0 16.984375l-4.828125 0l-0.21875 -3.484375l0.953125 -0.390625q-0.375 1.21875 -1.28125 2.171875q-0.890625 0.9375 -2.140625 1.5q-1.25 0.5625 -2.65625 0.5625zm14.715942 -0.359375l0 -16.984375l4.875 0l0.15625 3.0625l-0.671875 0.03125q0.375 -0.828125 0.96875 -1.46875q0.59375 -0.640625 1.34375 -1.0625q0.75 -0.4375 1.5625 -0.65625q0.828125 -0.234375 1.65625 -0.234375q1.25 0 2.265625 0.390625q1.03125 0.375 1.796875 1.234375q0.765625 0.84375 1.21875 2.28125l-0.796875 -0.0625l0.25 -0.515625q0.421875 -0.765625 1.078125 -1.390625q0.65625 -0.625 1.453125 -1.046875q0.796875 -0.4375 1.65625 -0.65625q0.875 -0.234375 1.671875 -0.234375q2.015625 0 3.359375 0.78125q1.34375 0.78125 2.03125 2.359375q0.6875 1.5625 0.6875 3.796875l0 10.375l-5.15625 0l0 -9.953125q0 -1.015625 -0.28125 -1.6875q-0.28125 -0.671875 -0.84375 -1.0q-0.5625 -0.34375 -1.390625 -0.34375q-0.671875 0 -1.234375 0.21875q-0.5625 0.21875 -0.96875 0.609375q-0.390625 0.375 -0.625 0.890625q-0.21875 0.515625 -0.21875 1.15625l0 10.109375l-5.15625 0l0 -9.984375q0 -0.953125 -0.28125 -1.625q-0.28125 -0.671875 -0.859375 -1.015625q-0.578125 -0.359375 -1.34375 -0.359375q-0.671875 0 -1.234375 0.21875q-0.5625 0.21875 -0.96875 0.609375q-0.390625 0.375 -0.625 0.890625q-0.21875 0.515625 -0.21875 1.125l0 10.140625l-5.15625 0zm31.112183 0l0 -16.984375l5.125 0l0 16.984375l-5.125 0zm2.5625 -20.359375q-1.4375 0 -2.265625 -0.6875q-0.8125 -0.6875 -0.8125 -1.96875q0 -1.140625 0.828125 -1.875q0.84375 -0.734375 2.25 -0.734375q1.4375 0 2.234375 0.6875q0.796875 0.6875 0.796875 1.921875q0 1.1875 -0.8125 1.921875q-0.8125 0.734375 -2.21875 0.734375zm13.786133 20.71875q-2.203125 0 -3.921875 -1.140625q-1.703125 -1.140625 -2.703125 -3.140625q-0.984375 -2.0 -0.984375 -4.5625q0 -2.5625 0.984375 -4.5625q1.0 -2.0 2.71875 -3.140625q1.734375 -1.15625 3.96875 -1.15625q1.15625 0 2.203125 0.359375q1.0625 0.34375 1.921875 0.953125q0.875 0.609375 1.40625 1.390625q0.546875 0.78125 0.640625 1.609375l-1.203125 0.296875l0 -10.953125l5.140625 0l0 23.6875l-4.765625 0l-0.28125 -3.875l1.015625 0.15625q-0.09375 0.8125 -0.625 1.546875q-0.515625 0.734375 -1.359375 1.296875q-0.828125 0.5625 -1.90625 0.890625q-1.0625 0.34375 -2.25 0.34375zm1.3125 -4.265625q1.1875 0 2.046875 -0.578125q0.859375 -0.578125 1.328125 -1.59375q0.46875 -1.03125 0.46875 -2.40625q0 -1.40625 -0.46875 -2.421875q-0.46875 -1.03125 -1.328125 -1.609375q-0.859375 -0.578125 -2.046875 -0.578125q-1.1875 0 -2.03125 0.578125q-0.84375 0.578125 -1.328125 1.609375q-0.484375 1.015625 -0.484375 2.421875q0 1.375 0.484375 2.40625q0.484375 1.015625 1.328125 1.59375q0.84375 0.578125 2.03125 0.578125zm21.17804 4.21875q-2.65625 0 -4.71875 -1.140625q-2.0625 -1.15625 -3.265625 -3.140625q-1.1875 -1.984375 -1.1875 -4.546875q0 -2.5625 1.1875 -4.546875q1.203125 -1.984375 3.265625 -3.125q2.0625 -1.15625 4.71875 -1.15625q2.65625 0 4.71875 1.15625q2.078125 1.140625 3.25 3.125q1.1875 1.984375 1.1875 4.546875q0 2.5625 -1.1875 4.546875q-1.171875 1.984375 -3.25 3.140625q-2.0625 1.140625 -4.71875 1.140625zm0 -4.40625q1.15625 0 2.046875 -0.578125q0.90625 -0.578125 1.40625 -1.5625q0.515625 -1.0 0.484375 -2.28125q0.03125 -1.28125 -0.484375 -2.28125q-0.5 -1.015625 -1.40625 -1.578125q-0.890625 -0.578125 -2.046875 -0.578125q-1.140625 0 -2.0625 0.578125q-0.90625 0.5625 -1.421875 1.578125q-0.515625 1.0 -0.484375 2.28125q-0.03125 1.28125 0.484375 2.28125q0.515625 0.984375 1.421875 1.5625q0.921875 0.578125 2.0625 0.578125zm18.246399 4.40625q-2.5 0 -4.40625 -0.796875q-1.890625 -0.796875 -3.015625 -2.140625l3.109375 -2.6875q0.984375 1.0 2.234375 1.46875q1.25 0.453125 2.359375 0.453125q0.453125 0 0.796875 -0.09375q0.359375 -0.09375 0.59375 -0.265625q0.25 -0.1875 0.375 -0.421875q0.125 -0.25 0.125 -0.5625q0 -0.640625 -0.578125 -1.0q-0.28125 -0.15625 -0.953125 -0.375q-0.671875 -0.234375 -1.734375 -0.515625q-1.5 -0.390625 -2.609375 -0.90625q-1.09375 -0.53125 -1.796875 -1.234375q-0.640625 -0.671875 -1.0 -1.484375q-0.34375 -0.828125 -0.34375 -1.84375q0 -1.1875 0.546875 -2.140625q0.5625 -0.96875 1.5 -1.671875q0.953125 -0.703125 2.1875 -1.0625q1.234375 -0.375 2.546875 -0.375q1.40625 0 2.6875 0.328125q1.28125 0.3125 2.375 0.890625q1.109375 0.578125 1.96875 1.375l-2.6875 3.0q-0.5625 -0.53125 -1.296875 -0.96875q-0.71875 -0.4375 -1.484375 -0.6875q-0.765625 -0.25 -1.40625 -0.25q-0.484375 0 -0.859375 0.078125q-0.359375 0.078125 -0.609375 0.25q-0.25 0.171875 -0.390625 0.421875q-0.125 0.234375 -0.125 0.546875q0 0.328125 0.171875 0.625q0.1875 0.28125 0.5 0.46875q0.328125 0.1875 1.03125 0.4375q0.703125 0.234375 1.921875 0.59375q1.5 0.40625 2.578125 0.921875q1.09375 0.515625 1.734375 1.21875q0.515625 0.546875 0.765625 1.265625q0.265625 0.71875 0.265625 1.546875q0 1.640625 -0.921875 2.90625q-0.90625 1.25 -2.515625 1.96875q-1.59375 0.71875 -3.640625 0.71875z" fill-rule="nonzero"/><path fill="#4285f4" d="m46.91894 236.80244l0 0c-3.345993 -23.148285 7.6395607 -46.06369 28.295078 -59.02237c20.655525 -12.958664 47.358482 -13.687927 68.77783 -1.8783264l0 0c7.587372 -13.459381 21.474503 -22.752151 37.4608 -25.067429c15.986282 -2.3152924 32.194077 2.618866 43.72084 13.309952l0 0c6.4634705 -12.20314 19.154633 -20.402084 33.569977 -21.687439c14.415344 -1.2853394 28.51474 4.524811 37.295013 15.368744l0 0c11.677216 -12.935303 30.255981 -18.381592 47.697113 -13.982254c17.441162 4.399353 30.612122 17.854172 33.81372 34.542496l0 0c14.30658 3.6736755 26.223663 13.012665 32.67224 25.60405c6.448578 12.591385 6.7960815 27.199982 0.9527283 40.051422l0 0c14.087799 17.260864 17.3833 40.260773 8.656647 60.416565c-8.726624 20.155762 -28.164307 34.43924 -51.059235 37.52008c-0.16137695 18.916931 -11.181824 36.27487 -28.813538 45.38333c-17.631714 9.108429 -39.12149 8.545074 -56.18622 -1.4729309l0 0c-7.2686768 22.65628 -27.72754 39.326538 -52.53763 42.808655c-24.810074 3.4820862 -49.52368 -6.848236 -63.463608 -26.527893l0 0c-17.087433 9.700165 -37.590942 12.494476 -56.885345 7.752594c-19.294395 -4.7418823 -35.75441 -16.620544 -45.667007 -32.95636l0 0c-17.461216 1.923584 -34.3438 -6.592987 -42.268986 -21.322937c-7.9251842 -14.72998 -5.2058887 -32.53772 6.8083134 -44.585266l0 0c-15.575859 -8.63031 -23.523602 -25.755676 -19.698792 -42.445923c3.82481 -16.690262 18.555458 -29.1633 36.510483 -30.914932z" fill-rule="evenodd"/><path fill="#000000" fill-opacity="0.0" d="m29.762089 311.05548l0 0c7.350296 4.0726624 15.84161 5.920105 24.333847 5.2943115m11.123005 60.615356c3.65197 -0.40231323 7.231598 -1.254242 10.646568 -2.5338745m91.90068 27.736603c-2.568573 -3.6261597 -4.719101 -7.5010376 -6.414963 -11.558563m122.42062 -4.7229004l0 0c1.3251953 -4.1305847 2.1838074 -8.381836 2.561493 -12.682861m82.43506 -31.225922c0.17178345 -20.139984 -11.97934 -38.580353 -31.2341 -47.40045m73.63629 -50.53409c-3.1182556 6.858032 -7.878601 12.941711 -13.907837 17.774017m-19.714203 -83.43129l0 0c0.53131104 2.7694397 0.77719116 5.58049 0.7342529 8.394211m-82.24371 -28.953613l0 0c-2.9128723 3.226715 -5.3127136 6.8325195 -7.1247864 10.705154m-63.740875 -4.387863l0 0c-1.5523224 2.9307861 -2.7114868 6.032074 -3.4508057 9.232422m-77.732025 2.525299l0 0c4.532318 2.4989014 8.725327 5.506592 12.486923 8.957016m-109.55858 51.944l0 0c0.46116257 3.190445 1.189827 6.3415527 2.1791687 9.423813" fill-rule="evenodd"/><path fill="#ffffff" d="m133.83897 269.46036l9.59375 -24.26564l5.0 0l9.53125 24.26564l-5.96875 0l-4.578125 -12.296875q-0.28125 -0.734375 -0.5625 -1.5625153q-0.265625 -0.828125 -0.546875 -1.71875q-0.265625 -0.890625 -0.53125 -1.734375q-0.265625 -0.84375 -0.4375 -1.578125l1.046875 -0.03125q-0.21875 0.859375 -0.484375 1.703125q-0.25 0.828125 -0.515625 1.640625q-0.25 0.8125 -0.5625 1.625q-0.3125 0.81251526 -0.59375 1.6875153l-4.578125 12.265625l-5.8125 0zm4.578125 -4.640625l1.828125 -4.4375l11.15625 0l1.8125 4.4375l-14.796875 0zm21.957718 12.265625l0 -26.031265l5.28125 0l0.203125 4.125l-1.046875 -0.3125q0.25 -1.140625 1.1875 -2.078125q0.9375 -0.9375 2.375 -1.5q1.4375 -0.578125 3.03125 -0.578125q2.359375 0 4.1875 1.234375q1.84375 1.234375 2.890625 3.359375q1.0625 2.1250153 1.0625 4.9375153q0 2.765625 -1.0625 4.921875q-1.046875 2.140625 -2.90625 3.375q-1.859375 1.234375 -4.25 1.234375q-1.546875 0 -2.96875 -0.578125q-1.421875 -0.59375 -2.40625 -1.59375q-0.96875 -1.015625 -1.265625 -2.203125l1.28125 -0.484375l0 12.171875l-5.59375 0zm9.609375 -11.984375q1.25 0 2.171875 -0.609375q0.9375 -0.609375 1.453125 -1.6875q0.53125 -1.078125 0.53125 -2.5625q0 -1.453125 -0.53125 -2.546875q-0.515625 -1.09375 -1.4375 -1.7031403q-0.90625 -0.609375 -2.1875 -0.609375q-1.28125 0 -2.21875 0.59375q-0.9375 0.59376526 -1.46875 1.7031403q-0.515625 1.109375 -0.515625 2.5625q0 1.484375 0.515625 2.5625q0.53125 1.078125 1.46875 1.6875q0.9375 0.609375 2.21875 0.609375zm21.900986 4.703125q-2.875 0 -5.109375 -1.25q-2.234375 -1.25 -3.546875 -3.390625q-1.296875 -2.15625 -1.296875 -4.921875q0 -2.765625 1.296875 -4.9062653q1.3125 -2.15625 3.546875 -3.40625q2.234375 -1.25 5.109375 -1.25q2.875 0 5.109375 1.25q2.234375 1.25 3.515625 3.40625q1.28125 2.1406403 1.28125 4.9062653q0 2.765625 -1.28125 4.921875q-1.28125 2.140625 -3.515625 3.390625q-2.234375 1.25 -5.109375 1.25zm0 -4.78125q1.25 0 2.21875 -0.625q0.96875 -0.625 1.515625 -1.6875q0.5625 -1.078125 0.53125 -2.46875q0.03125 -1.390625 -0.53125 -2.46875q-0.546875 -1.09375 -1.515625 -1.71875q-0.96875 -0.62501526 -2.21875 -0.62501526q-1.25 0 -2.234375 0.62501526q-0.984375 0.625 -1.546875 1.71875q-0.546875 1.078125 -0.515625 2.46875q-0.03125 1.390625 0.515625 2.46875q0.5625 1.0625 1.546875 1.6875q0.984375 0.625 2.234375 0.625zm13.542816 4.4375l0 -18.406265l5.28125 0l0.234375 6.0000153l-1.03125 -1.1406403q0.40625 -1.5 1.359375 -2.671875q0.953125 -1.171875 2.234375 -1.859375q1.28125 -0.703125 2.734375 -0.703125q0.625 0 1.15625 0.109375q0.546875 0.09375 1.0 0.234375l-1.53125 6.1406403q-0.375 -0.25 -1.015625 -0.40625q-0.640625 -0.15625 -1.328125 -0.15625q-0.765625 0 -1.421875 0.265625q-0.65625 0.25 -1.109375 0.734375q-0.453125 0.484375 -0.71875 1.15625q-0.25 0.65625 -0.25 1.484375l0 9.21875l-5.59375 0zm17.993195 0l0 -23.04689l5.546875 0l0 23.04689l-5.546875 0zm-3.25 -13.54689l0 -4.859375l12.359375 0l0 4.859375l-12.359375 0zm24.119843 13.89064q-3.0625 0 -5.3125 -1.21875q-2.25 -1.234375 -3.5 -3.359375q-1.25 -2.140625 -1.25 -4.875q0 -2.125 0.6875 -3.890625q0.703125 -1.7656403 1.953125 -3.0625153q1.25 -1.296875 2.953125 -2.0q1.71875 -0.71875 3.765625 -0.71875q1.9375 0 3.546875 0.703125q1.625 0.6875 2.796875 1.9375q1.1875 1.234375 1.796875 2.9375153q0.625 1.703125 0.5625 3.703125l-0.03125 1.5l-14.65625 0l-0.796875 -3.125l10.9375 0l-0.578125 0.65625l0 -0.6875q-0.078125 -0.875 -0.546875 -1.546875q-0.46875 -0.671875 -1.234375 -1.0468903q-0.75 -0.390625 -1.71875 -0.390625q-1.359375 0 -2.3125 0.546875q-0.953125 0.53126526 -1.4375 1.5625153q-0.484375 1.015625 -0.484375 2.5q0 1.53125 0.640625 2.65625q0.640625 1.125 1.875 1.75q1.234375 0.625 2.921875 0.625q1.1875 0 2.09375 -0.34375q0.921875 -0.359375 2.0 -1.1875l2.59375 3.671875q-1.0625 0.9375 -2.28125 1.53125q-1.21875 0.578125 -2.484375 0.875q-1.265625 0.296875 -2.5 0.296875zm17.746078 0q-2.71875 0 -4.78125 -0.859375q-2.0468597 -0.875 -3.2656097 -2.328125l3.3593597 -2.90625q1.078125 1.078125 2.421875 1.578125q1.359375 0.5 2.5625 0.5q0.5 0 0.875 -0.09375q0.375 -0.109375 0.640625 -0.296875q0.265625 -0.203125 0.390625 -0.453125q0.140625 -0.265625 0.140625 -0.609375q0 -0.703125 -0.625 -1.078125q-0.3125 -0.171875 -1.046875 -0.40625q-0.71875 -0.25 -1.859375 -0.5625q-1.625 -0.421875 -2.828125 -0.984375q-1.1875 -0.578125 -1.953125 -1.34375q-0.68748474 -0.71875 -1.0781097 -1.59375q-0.375 -0.890625 -0.375 -2.0q0 -1.2812653 0.59375 -2.3281403q0.609375 -1.046875 1.6249847 -1.796875q1.03125 -0.765625 2.359375 -1.15625q1.34375 -0.40625 2.765625 -0.40625q1.53125 0 2.90625 0.34375q1.390625 0.34375 2.578125 0.96875q1.203125 0.625 2.140625 1.5l-2.90625 3.2500153q-0.625 -0.59375 -1.40625 -1.0625153q-0.78125 -0.46875 -1.609375 -0.734375q-0.828125 -0.28125 -1.53125 -0.28125q-0.515625 0 -0.921875 0.09375q-0.390625 0.078125 -0.671875 0.265625q-0.28125 0.1875 -0.421875 0.453125q-0.125 0.265625 -0.125 0.60939026q0 0.34375 0.1875 0.65625q0.1875 0.3125 0.53125 0.515625q0.34375 0.21875 1.109375 0.484375q0.765625 0.25 2.078125 0.625q1.640625 0.453125 2.8125 1.015625q1.171875 0.546875 1.875 1.3125q0.546875 0.59375 0.828125 1.375q0.28125 0.765625 0.28125 1.671875q0 1.765625 -1.0 3.140625q-0.984375 1.359375 -2.71875 2.140625q-1.734375 0.78125 -3.9375 0.78125z" fill-rule="nonzero"/><path fill="#ffffff" d="m110.33862 311.46036l-7.6875 -18.40625l6.125 0l4.578125 13.765625l-1.359375 0.140625l4.71875 -13.90625l6.0625 0l-8.078125 18.40625l-4.359375 0zm23.462677 0.34375q-2.875 0 -5.109375 -1.25q-2.234375 -1.25 -3.546875 -3.390625q-1.296875 -2.15625 -1.296875 -4.921875q0 -2.765625 1.296875 -4.90625q1.3125 -2.15625 3.546875 -3.40625q2.234375 -1.25 5.109375 -1.25q2.875 0 5.109375 1.25q2.234375 1.25 3.515625 3.40625q1.28125 2.140625 1.28125 4.90625q0 2.765625 -1.28125 4.921875q-1.28125 2.140625 -3.515625 3.390625q-2.234375 1.25 -5.109375 1.25zm0 -4.78125q1.25 0 2.21875 -0.625q0.96875 -0.625 1.515625 -1.6875q0.5625 -1.078125 0.53125 -2.46875q0.03125 -1.390625 -0.53125 -2.46875q-0.546875 -1.09375 -1.515625 -1.71875q-0.96875 -0.625 -2.21875 -0.625q-1.25 0 -2.234375 0.625q-0.984375 0.625 -1.546875 1.71875q-0.546875 1.078125 -0.515625 2.46875q-0.03125 1.390625 0.515625 2.46875q0.5625 1.0625 1.546875 1.6875q0.984375 0.625 2.234375 0.625zm13.589676 4.4375l0 -25.640625l5.546875 0l0 25.640625l-5.546875 0zm16.596542 0.375q-2.046875 0 -3.484375 -0.875q-1.4375 -0.890625 -2.21875 -2.546875q-0.78125 -1.671875 -0.78125 -3.984375l0 -11.375l5.578125 0l0 10.609375q0 1.109375 0.34375 1.90625q0.359375 0.796875 1.046875 1.234375q0.6875 0.421875 1.65625 0.421875q0.734375 0 1.34375 -0.234375q0.609375 -0.25 1.03125 -0.671875q0.4375 -0.4375 0.671875 -1.0q0.25 -0.578125 0.25 -1.28125l0 -10.984375l5.578125 0l0 18.40625l-5.234375 0l-0.234375 -3.78125l1.03125 -0.40625q-0.40625 1.3125 -1.375 2.34375q-0.96875 1.015625 -2.328125 1.625q-1.34375 0.59375 -2.875 0.59375zm15.968079 -0.375l0 -18.40625l5.28125 0l0.171875 3.75l-1.109375 0.40625q0.375 -1.234375 1.359375 -2.25q1.0 -1.03125 2.375 -1.65625q1.390625 -0.625 2.921875 -0.625q2.078125 0 3.5 0.859375q1.4218903 0.84375 2.1406403 2.53125q0.734375 1.671875 0.734375 4.09375l0 11.296875l-5.5781403 0l0 -10.84375q0 -1.109375 -0.3125 -1.828125q-0.3125 -0.734375 -0.953125 -1.09375q-0.640625 -0.375 -1.578125 -0.34375q-0.734375 0 -1.359375 0.234375q-0.625 0.21875 -1.078125 0.65625q-0.4375 0.4375 -0.703125 1.0q-0.265625 0.546875 -0.265625 1.203125l0 11.015625l-2.734375 0q-0.96875 0 -1.671875 0q-0.6875 0 -1.140625 0zm23.53801 0l0 -23.046875l5.546875 0l0 23.046875l-5.546875 0zm-3.25 -13.546875l0 -4.859375l12.359375 0l0 4.859375l-12.359375 0zm22.135468 13.859375q-2.3125 0 -4.140625 -1.234375q-1.8125 -1.234375 -2.890625 -3.390625q-1.078125 -2.171875 -1.078125 -4.90625q0 -2.8125 1.078125 -4.953125q1.078125 -2.15625 2.9375 -3.375q1.875 -1.234375 4.265625 -1.234375q1.328125 0 2.40625 0.390625q1.09375 0.375 1.921875 1.046875q0.84375 0.671875 1.421875 1.5625q0.59375 0.875 0.875 1.890625l-1.140625 -0.140625l0 -4.375l5.5 0l0 18.40625l-5.609375 0l0 -4.4375l1.25 -0.03125q-0.28125 0.96875 -0.90625 1.84375q-0.625 0.859375 -1.53125 1.515625q-0.890625 0.65625 -2.0 1.046875q-1.109375 0.375 -2.359375 0.375zm1.53125 -4.671875q1.28125 0 2.21875 -0.59375q0.9375 -0.59375 1.453125 -1.6875q0.515625 -1.09375 0.515625 -2.578125q0 -1.484375 -0.515625 -2.578125q-0.515625 -1.09375 -1.453125 -1.703125q-0.9375 -0.609375 -2.21875 -0.609375q-1.25 0 -2.171875 0.609375q-0.921875 0.609375 -1.4375 1.703125q-0.515625 1.09375 -0.515625 2.578125q0 1.484375 0.515625 2.578125q0.515625 1.09375 1.4375 1.6875q0.921875 0.59375 2.171875 0.59375zm14.510376 4.359375l0 -18.40625l5.28125 0l0.234375 6.0l-1.03125 -1.140625q0.40625 -1.5 1.359375 -2.671875q0.953125 -1.171875 2.234375 -1.859375q1.28125 -0.703125 2.734375 -0.703125q0.625 0 1.15625 0.109375q0.546875 0.09375 1.0 0.234375l-1.53125 6.140625q-0.375 -0.25 -1.015625 -0.40625q-0.640625 -0.15625 -1.328125 -0.15625q-0.765625 0 -1.421875 0.265625q-0.65625 0.25 -1.109375 0.734375q-0.453125 0.484375 -0.71875 1.15625q-0.25 0.65625 -0.25 1.484375l0 9.21875l-5.59375 0zm16.081116 0l0 -18.40625l5.5468597 0l0 18.40625l-5.5468597 0zm2.7812347 -22.046875q-1.5624847 0 -2.4531097 -0.734375q-0.875 -0.75 -0.875 -2.140625q0 -1.25 0.890625 -2.046875q0.90625 -0.796875 2.4374847 -0.796875q1.5625 0 2.421875 0.75q0.875 0.75 0.875 2.09375q0 1.28125 -0.890625 2.078125q-0.890625 0.796875 -2.40625 0.796875zm16.633484 22.390625q-2.875 0 -5.109375 -1.25q-2.234375 -1.25 -3.546875 -3.390625q-1.296875 -2.15625 -1.296875 -4.921875q0 -2.765625 1.296875 -4.90625q1.3125 -2.15625 3.546875 -3.40625q2.234375 -1.25 5.109375 -1.25q2.875 0 5.109375 1.25q2.234375 1.25 3.515625 3.40625q1.28125 2.140625 1.28125 4.90625q0 2.765625 -1.28125 4.921875q-1.28125 2.140625 -3.515625 3.390625q-2.234375 1.25 -5.109375 1.25zm0 -4.78125q1.25 0 2.21875 -0.625q0.96875 -0.625 1.515625 -1.6875q0.5625 -1.078125 0.53125 -2.46875q0.03125 -1.390625 -0.53125 -2.46875q-0.546875 -1.09375 -1.515625 -1.71875q-0.96875 -0.625 -2.21875 -0.625q-1.25 0 -2.234375 0.625q-0.984375 0.625 -1.546875 1.71875q-0.546875 1.078125 -0.515625 2.46875q-0.03125 1.390625 0.515625 2.46875q0.5625 1.0625 1.546875 1.6875q0.984375 0.625 2.234375 0.625zm19.761536 4.78125q-2.71875 0 -4.78125 -0.859375q-2.046875 -0.875 -3.265625 -2.328125l3.359375 -2.90625q1.078125 1.078125 2.421875 1.578125q1.359375 0.5 2.5625 0.5q0.5 0 0.875 -0.09375q0.375 -0.109375 0.640625 -0.296875q0.265625 -0.203125 0.390625 -0.453125q0.140625 -0.265625 0.140625 -0.609375q0 -0.703125 -0.625 -1.078125q-0.3125 -0.171875 -1.046875 -0.40625q-0.71875 -0.25 -1.859375 -0.5625q-1.625 -0.421875 -2.828125 -0.984375q-1.1875 -0.578125 -1.953125 -1.34375q-0.6875 -0.71875 -1.078125 -1.59375q-0.375 -0.890625 -0.375 -2.0q0 -1.28125 0.59375 -2.328125q0.609375 -1.046875 1.625 -1.796875q1.03125 -0.765625 2.359375 -1.15625q1.34375 -0.40625 2.765625 -0.40625q1.53125 0 2.90625 0.34375q1.390625 0.34375 2.578125 0.96875q1.203125 0.625 2.140625 1.5l-2.90625 3.25q-0.625 -0.59375 -1.40625 -1.0625q-0.78125 -0.46875 -1.609375 -0.734375q-0.828125 -0.28125 -1.53125 -0.28125q-0.515625 0 -0.921875 0.09375q-0.390625 0.078125 -0.671875 0.265625q-0.28125 0.1875 -0.421875 0.453125q-0.125 0.265625 -0.125 0.609375q0 0.34375 0.1875 0.65625q0.1875 0.3125 0.53125 0.515625q0.34375 0.21875 1.109375 0.484375q0.765625 0.25 2.078125 0.625q1.640625 0.453125 2.8125 1.015625q1.171875 0.546875 1.875 1.3125q0.546875 0.59375 0.828125 1.375q0.28125 0.765625 0.28125 1.671875q0 1.765625 -1.0 3.140625q-0.984375 1.359375 -2.71875 2.140625q-1.734375 0.78125 -3.9375 0.78125z" fill-rule="nonzero"/></g></svg>