<svg xmlns="http://www.w3.org/2000/svg" width="200" height="110"><circle cx="121.93218134212881" cy="99.10723322732073" r="10" fill="#fbfbfc"/><circle cx="100.0" cy="78.83333333333333" r="10" fill="#fbfbfc"/><circle cx="78.06781865787119" cy="99.10723322732073" r="10" fill="#fbfbfc"/><circle cx="143.86436268425763" cy="97.38113312130815" r="10" fill="#fbfbfc"/><circle cx="134.33893792288652" cy="73.3226564545623" r="10" fill="#fbfbfc"/><circle cx="112.93777431022139" cy="58.778440682206806" r="10" fill="#fbfbfc"/><circle cx="87.06222568977863" cy="58.7784406822068" r="10" fill="#fbfbfc"/><circle cx="65.6610620771135" cy="73.32265645456229" r="10" fill="#fbfbfc"/><circle cx="56.13563731574237" cy="97.38113312130814" r="10" fill="#fbfbfc"/><circle cx="165.79654402638644" cy="95.65503301529556" r="10" fill="#fbfbfc"/><circle cx="159.38338674744662" cy="72.03032344889274" r="10" fill="#fbfbfc"/><circle cx="144.80084920517416" cy="52.36804771057808" r="10" fill="#fbfbfc"/><circle cx="124.05505299202387" cy="39.373147639252295" r="10" fill="#fbfbfc"/><circle cx="100.0" cy="34.83333333333333" r="10" fill="#fbfbfc"/><circle cx="75.94494700797614" cy="39.37314763925229" r="10" fill="#fbfbfc"/><circle cx="55.19915079482584" cy="52.36804771057809" r="10" fill="#fbfbfc"/><circle cx="40.61661325255338" cy="72.03032344889274" r="10" fill="#fbfbfc"/><circle cx="34.20345597361356" cy="95.65503301529556" r="10" fill="#fbfbfc"/><circle cx="187.72872536851526" cy="93.92893290928298" r="10" fill="#fbfbfc"/><circle cx="182.66904709879822" cy="70.66996727818815" r="10" fill="#fbfbfc"/><circle cx="171.56099404141744" cy="49.61786563260627" r="10" fill="#fbfbfc"/><circle cx="155.217272649515" cy="32.31287798495488" r="10" fill="#fbfbfc"/><circle cx="134.83365033389987" cy="20.021101558585286" r="10" fill="#fbfbfc"/><circle cx="111.90146867430128" cy="13.641848408516125" r="10" fill="#fbfbfc"/><circle cx="88.09853132569874" cy="13.641848408516125" r="10" fill="#fbfbfc"/><circle cx="65.16634966610016" cy="20.021101558585272" r="10" fill="#fbfbfc"/><circle cx="44.78272735048505" cy="32.31287798495485" r="10" fill="#fbfbfc"/><circle cx="28.439005958582584" cy="49.617865632606225" r="10" fill="#fbfbfc"/><circle cx="17.33095290120181" cy="70.66996727818812" r="10" fill="#fbfbfc"/><circle cx="12.271274631484744" cy="93.92893290928296" r="10" fill="#fbfbfc"/></svg>